<?xml version="1.0" encoding="UTF-8" standalone="no"?>
<!-- Generator: Adobe Illustrator 15.0.2, SVG Export Plug-In . SVG Version: 6.00 Build 0)  -->

<svg
   xmlns:dc="http://purl.org/dc/elements/1.1/"
   xmlns:cc="http://creativecommons.org/ns#"
   xmlns:rdf="http://www.w3.org/1999/02/22-rdf-syntax-ns#"
   xmlns:svg="http://www.w3.org/2000/svg"
   xmlns="http://www.w3.org/2000/svg"
   xmlns:xlink="http://www.w3.org/1999/xlink"
   xmlns:sodipodi="http://sodipodi.sourceforge.net/DTD/sodipodi-0.dtd"
   xmlns:inkscape="http://www.inkscape.org/namespaces/inkscape"
   version="1.1"
   id="Layer_1"
   x="0px"
   y="0px"
   width="1147.4941"
   height="255.49623"
   viewBox="0 0 1147.4941 255.49624"
   enable-background="new 0 0 1213.43 410.912"
   xml:space="preserve"
   inkscape:version="0.48.2 r9819"
   sodipodi:docname="Tnuva_New_Logo.svg"><metadata
   id="metadata112"><rdf:RDF><cc:Work
       rdf:about=""><dc:format>image/svg+xml</dc:format><dc:type
         rdf:resource="http://purl.org/dc/dcmitype/StillImage" /></cc:Work></rdf:RDF></metadata><defs
   id="defs110"><linearGradient
     inkscape:collect="always"
     xlink:href="#linearGradient130"
     id="linearGradient3613"
     gradientUnits="userSpaceOnUse"
     gradientTransform="matrix(11.175186,-12.13855,-12.13855,-11.175186,389.92,907.44714)"
     spreadMethod="pad"
     x1="0"
     y1="0"
     x2="1"
     y2="0" /><linearGradient
     x1="0"
     y1="0"
     x2="1"
     y2="0"
     gradientUnits="userSpaceOnUse"
     gradientTransform="matrix(11.175186,-12.13855,-12.13855,-11.175186,389.92,907.44714)"
     spreadMethod="pad"
     id="linearGradient130"><stop
       style="stop-opacity:1;stop-color:#00b6f1"
       offset="0"
       id="stop132" /><stop
       style="stop-opacity:1;stop-color:#004fa3"
       offset="0.746033"
       id="stop134" /><stop
       style="stop-opacity:1;stop-color:#004fa3"
       offset="0.746033"
       id="stop136" /><stop
       style="stop-opacity:1;stop-color:#004fa3"
       offset="1"
       id="stop138" /></linearGradient><linearGradient
     inkscape:collect="always"
     xlink:href="#linearGradient160"
     id="linearGradient3615"
     gradientUnits="userSpaceOnUse"
     gradientTransform="matrix(-7.1970062,-14.39418,-14.39418,7.1970062,389.62196,917.55104)"
     spreadMethod="pad"
     x1="0"
     y1="0"
     x2="1"
     y2="0" /><linearGradient
     x1="0"
     y1="0"
     x2="1"
     y2="0"
     gradientUnits="userSpaceOnUse"
     gradientTransform="matrix(-7.1970062,-14.39418,-14.39418,7.1970062,389.62196,917.55104)"
     spreadMethod="pad"
     id="linearGradient160"><stop
       style="stop-opacity:1;stop-color:#ef3e42"
       offset="0"
       id="stop162" /><stop
       style="stop-opacity:1;stop-color:#9e0918"
       offset="0.693115"
       id="stop164" /><stop
       style="stop-opacity:1;stop-color:#9e0918"
       offset="0.693115"
       id="stop166" /><stop
       style="stop-opacity:1;stop-color:#9e0918"
       offset="1"
       id="stop168" /></linearGradient><linearGradient
     inkscape:collect="always"
     xlink:href="#linearGradient190"
     id="linearGradient3617"
     gradientUnits="userSpaceOnUse"
     gradientTransform="matrix(8.6418457,-14.938126,-14.938126,-8.6418457,399.6362,919.88457)"
     spreadMethod="pad"
     x1="0"
     y1="0"
     x2="1"
     y2="0" /><linearGradient
     x1="0"
     y1="0"
     x2="1"
     y2="0"
     gradientUnits="userSpaceOnUse"
     gradientTransform="matrix(8.6418457,-14.938126,-14.938126,-8.6418457,399.6362,919.88457)"
     spreadMethod="pad"
     id="linearGradient190"><stop
       style="stop-opacity:1;stop-color:#8cc63f"
       offset="0"
       id="stop192" /><stop
       style="stop-opacity:1;stop-color:#00a663"
       offset="0.666672"
       id="stop194" /><stop
       style="stop-opacity:1;stop-color:#00a663"
       offset="0.666672"
       id="stop196" /><stop
       style="stop-opacity:1;stop-color:#00a663"
       offset="1"
       id="stop198" /></linearGradient></defs><sodipodi:namedview
   pagecolor="#ffffff"
   bordercolor="#666666"
   borderopacity="1"
   objecttolerance="10"
   gridtolerance="10"
   guidetolerance="10"
   inkscape:pageopacity="0"
   inkscape:pageshadow="2"
   inkscape:window-width="1280"
   inkscape:window-height="962"
   id="namedview108"
   showgrid="false"
   inkscape:zoom="0.67126358"
   inkscape:cx="457.28944"
   inkscape:cy="44.587535"
   inkscape:window-x="-8"
   inkscape:window-y="-8"
   inkscape:window-maximized="1"
   inkscape:current-layer="Layer_1"
   borderlayer="false"
   fit-margin-top="0"
   fit-margin-left="0"
   fit-margin-right="0"
   fit-margin-bottom="0" />
<g
   id="g3607"
   transform="matrix(9.3134634,0,0,-9.3134634,-2669.5357,8580.1213)"><path
     d="m 390.91,903.843 c -1.996,-2.177 -3.999,-3.139 -6.172,-3.951 l 0,0 c 2.462,-3.658 6.644,-6.065 11.386,-6.065 l 0,0 c 5.214,0 9.746,2.909 12.068,7.19 l 0,0 c -4.513,1.609 -7.341,4.785 -9.396,8.312 l 0,0 c -0.767,1.313 -2.488,3.789 -3.949,4.745 l 0,0 c -0.003,-3.739 -1.494,-7.569 -3.937,-10.231"
     style="fill:url(#linearGradient3613);stroke:none"
     id="path140"
     inkscape:connector-curvature="0" /><path
     d="m 382.408,907.543 c 0,-1.24 0.165,-2.442 0.472,-3.585 l 0,0 c 5.249,1.923 9.091,7.151 7.022,12.935 l 0,0 c -0.284,0.788 -0.737,1.49 -1.257,2.149 l 0,0 c -3.755,-2.444 -6.237,-6.682 -6.237,-11.499"
     style="fill:url(#linearGradient3615);stroke:none"
     id="path170"
     inkscape:connector-curvature="0" /><path
     d="m 393.761,921.057 c 5.103,-3.416 7.215,-6.846 9.925,-10.745 l 0,0 c 1.898,-2.737 3.493,-3.671 5.984,-4.929 l 0,0 c 0.111,0.704 0.17,1.425 0.17,2.16 l 0,0 c 0,7.576 -6.142,13.717 -13.716,13.717 l 0,0 c -0.807,0 -1.595,-0.07 -2.363,-0.203"
     style="fill:url(#linearGradient3617);stroke:none"
     id="path200"
     inkscape:connector-curvature="0" /><path
     d="m 336.0429,918.6976 -7.675,0 -0.329,-4.696 3.236,0 0,-17.574 5.244,0 0.778,0.669 c 0.518,0.512 0.691,0.943 0.691,1.572 l 0,18.182 c 0,1.375 -0.819,1.847 -1.945,1.847 m 14.15,0 -7.245,0 -0.329,-4.696 3.616,0 0,-11.541 c 0,-0.904 -0.519,-1.297 -1.382,-1.297 l -3.457,0 0,-3.241 c 1.773,-1.337 2.552,-1.495 4.066,-1.495 l 1.748,0 c 3.545,0 5.707,2.004 5.707,5.584 l 0,13.698 c 0,1.849 -0.819,2.988 -2.724,2.988 m 21.46,0 -14.146,0 -0.329,-4.696 3.458,0 -0.778,-0.785 c -0.692,-0.708 -0.866,-1.178 -0.866,-2.045 l 0,-9.169 c 0,-0.709 -0.431,-1.064 -1.168,-1.064 l -2.199,0 0,-3.37 c 1.601,-1.063 2.247,-1.26 3.634,-1.26 3.245,0.003 4.166,0.419 5.168,1.421 0.802,0.802 1.274,1.962 1.274,3.693 l 0,12.579 4.213,0 c 0.996,0 1.3,-0.472 1.3,-1.375 l 0,-16.199 5.237,0 0.782,0.668 c 0.518,0.513 0.69,0.944 0.69,1.573 l 0,14.327 c 0,3.577 -1.427,5.702 -6.27,5.702 m -84.066,-9.937 -0.603,-0.549 0,-11.797 6.535,0 0,12.973 -4.286,0 c -0.565,0 -1.167,-0.157 -1.646,-0.627 m 36.979,4.981 c 0,3.109 -1.644,4.956 -5.196,4.956 l -10.192,0 -0.327,-4.696 7.751,0 c 0.95,0 1.257,-0.393 1.257,-1.219 l 0,-11.619 -7.219,0 c -0.563,0 -1.169,-0.158 -1.644,-0.629 l -0.606,-0.55 0,-3.557 14.502,0 c 1.085,0 1.948,0.317 2.815,0.944 l 1.211,0.942 0,2.85 -2.352,0 0,12.578 z m -24.645,4.956 -12.96,0 -0.329,-4.696 10.603,0 c 1.294,0 1.556,-0.274 1.556,-1.571 l 0,-16.003 5.196,0 0.779,0.669 c 0.518,0.512 0.733,0.943 0.733,1.572 l 0,14.761 c 0,3.461 -1.77,5.268 -5.578,5.268"
     style="fill:#ef3e42;fill-opacity:1;fill-rule:nonzero;stroke:none"
     id="path212"
     inkscape:connector-curvature="0" /></g>




</svg>