<svg version="1.2" xmlns="http://www.w3.org/2000/svg" viewBox="0 0 1164 1513" width="1164" height="1513">
	<title>Bezeq_Logo-svg</title>
	<defs>
		<clipPath clipPathUnits="userSpaceOnUse" id="cp1">
			<path d="m-559.36-464.26h2260.75v2261.42h-2260.75z"/>
		</clipPath>
	</defs>
	<style>
		.s0 { fill: #20294d } 
	</style>
	<g id="g10">
		<g id="g12">
			<g id="Clip-Path: g14" clip-path="url(#cp1)">
				<g id="g14">
					<g id="g20">
						<path id="path22" fill-rule="evenodd" class="s0" d="m1035.1 788.4c-41.7 213.4-496.8 353-829.5 162.4-34.2-21.3-65.2-44.3-65.2-92.3 0-79.2 68.1-145.4 68.1-326.6 0-130.7-73.2-192.7-73.2-288.3 0-204.9 745.7-402.6 828.7-47 23.4 100-17.6 184.5-121.4 300.4 134.8 80.6 214 181.2 192.5 291.4zm-459.7-236.4v-93.9c0-63.6 86.2-66.6 86.2-147.9 0-47.5-44.3-86.1-98.8-86.1-51 0-98 38.6-98 86.1 0 86.1 82.8 84.7 83.4 147.3v94.7c0 63.5-84.8 65.8-84.8 147 0 47.5 44.3 86.1 98.7 86.1 51.1 0 98.1-38.6 98.1-86.1 0-86.1-84.4-84.4-84.8-147.2z"/>
					</g>
					<g id="g24">
						<path id="path26" fill-rule="evenodd" class="s0" d="m0.9 1108.6h108.4c54.9 0 91.3 28.2 91.3 75.4 0 26.5-11.2 48.4-30.5 63 29.6 12.4 47.6 38.5 47.6 74.1 0 54.8-43.7 92.6-110.1 92.6h-106.7zm98.1 125.9c28.7 0 46.3-16.7 46.3-41.5 0-24.5-17.1-39.5-45-39.5h-43.7v81zm11.6 133.7c31.3 0 50.5-18.4 50.5-45.4 0-26.1-18.8-43.3-49.2-43.3h-55.3v88.7z"/>
					</g>
					<g id="g28">
						<path id="path30" fill-rule="evenodd" class="s0" d="m246.3 1304.4c0-72.4 45.4-120.9 111.8-120.9 63.9 0 106.3 44.2 106.3 114.5 0 6.4-0.5 13.2-1.3 20.1h-165.4c3.5 35.1 24.9 57 57.4 57 22.8 0 40.3-11.2 48.9-29.2h53.1c-15 45-53.1 73.3-104.1 73.3-63.8 0-106.7-44.5-106.7-114.8zm165.8-24.9c-3.4-32.1-25.3-51.8-56.5-51.8-32.2 0-53.6 20.5-57 51.8z"/>
					</g>
					<g id="g32">
						<path id="path34" class="s0" d="m492.6 1379.8l104.5-144.8h-103.7v-45.5h171v34.3l-104.6 144.4h103.7v45.5h-170.9z"/>
					</g>
					<g id="g36">
						<path id="path38" fill-rule="evenodd" class="s0" d="m690 1304.4c0-72.4 45.4-120.9 111.8-120.9 63.8 0 106.2 44.2 106.2 114.5 0 6.4-0.4 13.2-1.2 20.1h-165.4c3.4 35.1 24.9 57 57.4 57 22.7 0 40.3-11.2 48.8-29.2h53.2c-15 45-53.2 73.3-104.1 73.3-63.9 0-106.7-44.5-106.7-114.8zm165.8-24.9c-3.4-32.1-25.3-51.8-56.6-51.8-32.1 0-53.5 20.5-56.9 51.8z"/>
					</g>
					<g id="g40">
						<path id="path42" fill-rule="evenodd" class="s0" d="m1108 1394.8c-17.1 15.9-39.4 24.8-65.5 24.8-60 0-101.1-46.2-101.1-115.6 0-71.6 43.7-120.4 107.9-120.4 26.2 0 48.9 8.5 66.4 23.9l9.9-18h37.7v322.7h-55.3zm0.9-93.2c0-39.2-25-70.9-55.9-70.9-31 0-55.9 31.7-55.9 70.9 0 39.2 24.9 70.9 55.9 70.9 30.9 0 55.9-31.7 55.9-70.9z"/>
					</g>
				</g>
			</g>
		</g>
	</g>
</svg>